<svg viewBox="0 0 330 200" xmlns="http://www.w3.org/2000/svg"><g><g><g><g><g><line x1="70" y1="178" x2="65" y2="178" style="visibility: inherit;" fill="rgb(0, 0, 0)" stroke="rgb(204, 204, 204)" stroke-width="1px"></line><line x1="70" y1="164.30769230769232" x2="65" y2="164.30769230769232" style="visibility: inherit;" fill="rgb(0, 0, 0)" stroke="rgb(204, 204, 204)" stroke-width="1px"></line><line x1="70" y1="150.6153846153846" x2="65" y2="150.6153846153846" style="visibility: inherit;" fill="rgb(0, 0, 0)" stroke="rgb(204, 204, 204)" stroke-width="1px"></line><line x1="70" y1="136.9230769230769" x2="65" y2="136.9230769230769" style="visibility: inherit;" fill="rgb(0, 0, 0)" stroke="rgb(204, 204, 204)" stroke-width="1px"></line><line x1="70" y1="123.23076923076923" x2="65" y2="123.23076923076923" style="visibility: inherit;" fill="rgb(0, 0, 0)" stroke="rgb(204, 204, 204)" stroke-width="1px"></line><line x1="70" y1="109.53846153846153" x2="65" y2="109.53846153846153" style="visibility: inherit;" fill="rgb(0, 0, 0)" stroke="rgb(204, 204, 204)" stroke-width="1px"></line><line x1="70" y1="95.84615384615384" x2="65" y2="95.84615384615384" style="visibility: inherit;" fill="rgb(0, 0, 0)" stroke="rgb(204, 204, 204)" stroke-width="1px"></line><line x1="70" y1="82.15384615384616" x2="65" y2="82.15384615384616" style="visibility: inherit;" fill="rgb(0, 0, 0)" stroke="rgb(204, 204, 204)" stroke-width="1px"></line><line x1="70" y1="68.46153846153845" x2="65" y2="68.46153846153845" style="visibility: inherit;" fill="rgb(0, 0, 0)" stroke="rgb(204, 204, 204)" stroke-width="1px"></line><line x1="70" y1="54.769230769230774" x2="65" y2="54.769230769230774" style="visibility: inherit;" fill="rgb(0, 0, 0)" stroke="rgb(204, 204, 204)" stroke-width="1px"></line><line x1="70" y1="41.076923076923066" x2="65" y2="41.076923076923066" style="visibility: inherit;" fill="rgb(0, 0, 0)" stroke="rgb(204, 204, 204)" stroke-width="1px"></line><line x1="70" y1="27.384615384615387" x2="65" y2="27.384615384615387" style="visibility: inherit;" fill="rgb(0, 0, 0)" stroke="rgb(204, 204, 204)" stroke-width="1px"></line><line x1="70" y1="13.69230769230768" x2="65" y2="13.69230769230768" style="visibility: inherit;" fill="rgb(0, 0, 0)" stroke="rgb(204, 204, 204)" stroke-width="1px"></line><line x1="70" y1="0" x2="65" y2="0" style="visibility: inherit;" fill="rgb(0, 0, 0)" stroke="rgb(204, 204, 204)" stroke-width="1px"></line></g><g transform="translate(60, 0)"><text x="0" y="178" dx="0em" dy="0.3em" style="text-anchor: end; visibility: hidden; font-family: &quot;Helvetica Neue&quot;, sans-serif; font-size: 12px; font-weight: 200;" fill="rgb(50, 49, 63)" stroke="none" stroke-width="1px">-100</text><text x="0" y="164.30769230769232" dx="0em" dy="0.3em" style="text-anchor: end; visibility: inherit; font-family: &quot;Helvetica Neue&quot;, sans-serif; font-size: 12px; font-weight: 200;" fill="rgb(50, 49, 63)" stroke="none" stroke-width="1px">0</text><text x="0" y="150.6153846153846" dx="0em" dy="0.3em" style="text-anchor: end; visibility: hidden; font-family: &quot;Helvetica Neue&quot;, sans-serif; font-size: 12px; font-weight: 200;" fill="rgb(50, 49, 63)" stroke="none" stroke-width="1px">100</text><text x="0" y="136.9230769230769" dx="0em" dy="0.3em" style="text-anchor: end; visibility: inherit; font-family: &quot;Helvetica Neue&quot;, sans-serif; font-size: 12px; font-weight: 200;" fill="rgb(50, 49, 63)" stroke="none" stroke-width="1px">200</text><text x="0" y="123.23076923076923" dx="0em" dy="0.3em" style="text-anchor: end; visibility: hidden; font-family: &quot;Helvetica Neue&quot;, sans-serif; font-size: 12px; font-weight: 200;" fill="rgb(50, 49, 63)" stroke="none" stroke-width="1px">300</text><text x="0" y="109.53846153846153" dx="0em" dy="0.3em" style="text-anchor: end; visibility: inherit; font-family: &quot;Helvetica Neue&quot;, sans-serif; font-size: 12px; font-weight: 200;" fill="rgb(50, 49, 63)" stroke="none" stroke-width="1px">400</text><text x="0" y="95.84615384615384" dx="0em" dy="0.3em" style="text-anchor: end; visibility: hidden; font-family: &quot;Helvetica Neue&quot;, sans-serif; font-size: 12px; font-weight: 200;" fill="rgb(50, 49, 63)" stroke="none" stroke-width="1px">500</text><text x="0" y="82.15384615384616" dx="0em" dy="0.3em" style="text-anchor: end; visibility: inherit; font-family: &quot;Helvetica Neue&quot;, sans-serif; font-size: 12px; font-weight: 200;" fill="rgb(50, 49, 63)" stroke="none" stroke-width="1px">600</text><text x="0" y="68.46153846153845" dx="0em" dy="0.3em" style="text-anchor: end; visibility: hidden; font-family: &quot;Helvetica Neue&quot;, sans-serif; font-size: 12px; font-weight: 200;" fill="rgb(50, 49, 63)" stroke="none" stroke-width="1px">700</text><text x="0" y="54.769230769230774" dx="0em" dy="0.3em" style="text-anchor: end; visibility: inherit; font-family: &quot;Helvetica Neue&quot;, sans-serif; font-size: 12px; font-weight: 200;" fill="rgb(50, 49, 63)" stroke="none" stroke-width="1px">800</text><text x="0" y="41.076923076923066" dx="0em" dy="0.3em" style="text-anchor: end; visibility: hidden; font-family: &quot;Helvetica Neue&quot;, sans-serif; font-size: 12px; font-weight: 200;" fill="rgb(50, 49, 63)" stroke="none" stroke-width="1px">900</text><text x="0" y="27.384615384615387" dx="0em" dy="0.3em" style="text-anchor: end; visibility: inherit; font-family: &quot;Helvetica Neue&quot;, sans-serif; font-size: 12px; font-weight: 200;" fill="rgb(50, 49, 63)" stroke="none" stroke-width="1px">1e+3</text><text x="0" y="13.69230769230768" dx="0em" dy="0.3em" style="text-anchor: end; visibility: hidden; font-family: &quot;Helvetica Neue&quot;, sans-serif; font-size: 12px; font-weight: 200;" fill="rgb(50, 49, 63)" stroke="none" stroke-width="1px">1.1e+3</text><text x="0" y="0" dx="0em" dy="0.3em" style="text-anchor: end; visibility: hidden; font-family: &quot;Helvetica Neue&quot;, sans-serif; font-size: 12px; font-weight: 200;" fill="rgb(50, 49, 63)" stroke="none" stroke-width="1px">1.2e+3</text></g><line x1="70" y1="0" x2="70" y2="178" fill="rgb(0, 0, 0)" stroke="rgb(204, 204, 204)" stroke-width="1px"></line></g></g><g transform="translate(70, 0)" clip-path="url(#clip_0)"><clipPath id="clip_0"><rect width="260" height="177"></rect></clipPath><g><g><g><line x1="0" y1="0" x2="0" y2="178" fill="rgb(0, 0, 0)" stroke="rgb(60, 60, 60)" stroke-width="1px" opacity="0.25"></line><line x1="26" y1="0" x2="26" y2="178" fill="rgb(0, 0, 0)" stroke="rgb(60, 60, 60)" stroke-width="1px" opacity="0.25"></line><line x1="52" y1="0" x2="52" y2="178" fill="rgb(0, 0, 0)" stroke="rgb(60, 60, 60)" stroke-width="1px" opacity="0.25"></line><line x1="78" y1="0" x2="78" y2="178" fill="rgb(0, 0, 0)" stroke="rgb(60, 60, 60)" stroke-width="1px" opacity="0.25"></line><line x1="104" y1="0" x2="104" y2="178" fill="rgb(0, 0, 0)" stroke="rgb(60, 60, 60)" stroke-width="1px" opacity="0.25"></line><line x1="130" y1="0" x2="130" y2="178" fill="rgb(0, 0, 0)" stroke="rgb(60, 60, 60)" stroke-width="1px" opacity="0.25"></line><line x1="156" y1="0" x2="156" y2="178" fill="rgb(0, 0, 0)" stroke="rgb(60, 60, 60)" stroke-width="1px" opacity="0.25"></line><line x1="182" y1="0" x2="182" y2="178" fill="rgb(0, 0, 0)" stroke="rgb(60, 60, 60)" stroke-width="1px" opacity="0.25"></line><line x1="208" y1="0" x2="208" y2="178" fill="rgb(0, 0, 0)" stroke="rgb(60, 60, 60)" stroke-width="1px" opacity="0.25"></line><line x1="234" y1="0" x2="234" y2="178" fill="rgb(0, 0, 0)" stroke="rgb(60, 60, 60)" stroke-width="1px" opacity="0.25"></line><line x1="260" y1="0" x2="260" y2="178" fill="rgb(0, 0, 0)" stroke="rgb(60, 60, 60)" stroke-width="1px" opacity="0.25"></line></g><g><line x1="0" y1="178" x2="260" y2="178" fill="rgb(0, 0, 0)" stroke="rgb(60, 60, 60)" stroke-width="1px" opacity="0.25"></line><line x1="0" y1="164.30769230769232" x2="260" y2="164.30769230769232" fill="rgb(0, 0, 0)" stroke="rgb(60, 60, 60)" stroke-width="1px" opacity="0.25"></line><line x1="0" y1="150.6153846153846" x2="260" y2="150.6153846153846" fill="rgb(0, 0, 0)" stroke="rgb(60, 60, 60)" stroke-width="1px" opacity="0.25"></line><line x1="0" y1="136.9230769230769" x2="260" y2="136.9230769230769" fill="rgb(0, 0, 0)" stroke="rgb(60, 60, 60)" stroke-width="1px" opacity="0.25"></line><line x1="0" y1="123.23076923076923" x2="260" y2="123.23076923076923" fill="rgb(0, 0, 0)" stroke="rgb(60, 60, 60)" stroke-width="1px" opacity="0.25"></line><line x1="0" y1="109.53846153846153" x2="260" y2="109.53846153846153" fill="rgb(0, 0, 0)" stroke="rgb(60, 60, 60)" stroke-width="1px" opacity="0.25"></line><line x1="0" y1="95.84615384615384" x2="260" y2="95.84615384615384" fill="rgb(0, 0, 0)" stroke="rgb(60, 60, 60)" stroke-width="1px" opacity="0.25"></line><line x1="0" y1="82.15384615384616" x2="260" y2="82.15384615384616" fill="rgb(0, 0, 0)" stroke="rgb(60, 60, 60)" stroke-width="1px" opacity="0.25"></line><line x1="0" y1="68.46153846153845" x2="260" y2="68.46153846153845" fill="rgb(0, 0, 0)" stroke="rgb(60, 60, 60)" stroke-width="1px" opacity="0.25"></line><line x1="0" y1="54.769230769230774" x2="260" y2="54.769230769230774" fill="rgb(0, 0, 0)" stroke="rgb(60, 60, 60)" stroke-width="1px" opacity="0.25"></line><line x1="0" y1="41.076923076923066" x2="260" y2="41.076923076923066" fill="rgb(0, 0, 0)" stroke="rgb(60, 60, 60)" stroke-width="1px" opacity="0.25"></line><line x1="0" y1="27.384615384615387" x2="260" y2="27.384615384615387" fill="rgb(0, 0, 0)" stroke="rgb(60, 60, 60)" stroke-width="1px" opacity="0.25"></line><line x1="0" y1="13.69230769230768" x2="260" y2="13.69230769230768" fill="rgb(0, 0, 0)" stroke="rgb(60, 60, 60)" stroke-width="1px" opacity="0.25"></line><line x1="0" y1="0" x2="260" y2="0" fill="rgb(0, 0, 0)" stroke="rgb(60, 60, 60)" stroke-width="1px" opacity="0.25"></line></g></g></g><g><g><line x1="0" y1="164.30769230769232" x2="260" y2="164.30769230769232" fill="rgb(0, 0, 0)" stroke="rgb(153, 153, 153)" stroke-width="1.5px"></line></g></g><g><g><line x1="26" y1="0" x2="26" y2="178" fill="rgb(0, 0, 0)" stroke="rgb(153, 153, 153)" stroke-width="1.5px"></line></g></g><g><g><g><g><g><path stroke="rgb(255, 112, 67)" stroke-width="2px" d="M26.26,97.7605154653696L26.52,66.88250059274526L26.779999999999998,87.36964338317583L27.04,49.39372355724353L27.3,38.97277716956211L27.56,17.15656110344193L27.82,-2.9893652178041634L29.12,-37.28983235534204L29.380000000000003,10.411613373694706L29.64,-53.809040646791004L29.900000000000002,5.433489303946914L30.16,21.676845182261076L30.42,-43.68022519061847L30.68,-36.31174156416151L30.939999999999998,20.212375187349835L31.2,24.40841521498345L31.46,32.45755747095578L31.72,33.52593500056986L31.98,11.126237017820529L32.24,21.263921181400974L32.5,12.758930241646738L32.76,39.28526930453239L33.02,29.341275729056036L33.28,35.942075568170225L33.54,30.149865502397574L33.800000000000004,-4.294430711133543L34.06,-12.512033314775636L34.32,2.7752563630145346L34.58,24.320896433193838L34.84,31.674594485872888L35.1,63.67718805597386L35.36,24.0027361022498L35.620000000000005,0.5124534150150453L35.88,-10.311674776038785L36.14,-15.961594346359874L36.400000000000006,55.991105211342315L36.66,75.38780322274113L36.919999999999995,84.49558651660332L37.18,94.31316846928708L37.44,82.87064672261877L37.699999999999996,41.45509566147783L37.96,85.55806207586926L38.22,29.039387874416263L38.48,43.820289275462386L38.739999999999995,62.219665753025296L39,88.01782929352008L39.26,95.7308656763598L39.519999999999996,26.6586863978024L39.78,5.944202223260646L40.04,29.362163799425616L40.3,68.8126261417595L40.56,107.01065260814701L40.82,89.78512661596606L41.08,119.5941528926606L41.34,123.69741940424153L41.6,120.9503312248765L41.86,121.71028814673483L42.120000000000005,81.48349951063634L42.38,96.61374061308268L42.64,61.96090257097438L42.9,47.62505596566152L43.160000000000004,49.34154758931277L43.42,75.17143430028241L43.68,110.82593750324641L43.940000000000005,132.21863942502478L44.2,145.05426057809177L44.46,106.75464078195121L44.72,109.7888227804688L44.98,118.7615185969171L45.239999999999995,136.18321845607696L45.5,141.79328610576005L45.76,115.0729630246339L46.019999999999996,29.16635571441978L46.28,-33.062495916300065L46.54,45.88557937329688L46.8,77.98262759693488L47.059999999999995,96.07096316423065L47.32,112.91702172741459L47.58,83.60553763079972L47.839999999999996,67.90858677619616L48.1,48.385593471967695L48.36,44.546204866233495L48.62,39.99357005014875L48.88,52.27500617522145L49.14,35.618283753209795L49.4,58.51652959687779L49.660000000000004,29.421325510530522L49.92,55.55005766358997L50.18,36.73389682772131L50.440000000000005,69.87224885384431L50.7,84.1820094685566L50.96,41.47930258618203L51.22,30.962821034882268L51.480000000000004,61.16628691555077L51.74,84.97742669034609L52,74.60894940363073L52.260000000000005,80.33496643454622L52.52,49.25477275435756L52.78,56.30676039991022L53.04,39.1548973607394L53.3,80.48527211911792L53.559999999999995,52.77774072038903L53.82,72.82122856684882L54.08,68.64706819479677L54.339999999999996,32.08063665005116L54.6,24.690853669718166L54.86,55.28048959065303L55.12,68.99494222945192L55.379999999999995,52.243452567238435L55.64,85.16779695726012L55.9,75.4089435739955L56.16,42.58951307949346L56.42,70.73145702137397L56.68,64.18212845711527L56.94,88.4081145517331L57.2,98.66320868747015L57.46,106.42722066019843L57.72,118.6656088196467L57.980000000000004,122.24808250182409L58.24,100.88395658492858L58.5,108.32683547063864L58.760000000000005,69.20567692841684L59.02,92.32354246263904L59.28,101.98041397668199L59.54,126.91132530908612L59.800000000000004,135.16256431293064L60.06,80.19278993992184L60.32,61.54037994352039L60.580000000000005,71.96038301418915L60.84,105.0321457490183L61.099999999999994,124.99523003880401L61.36,127.6506799403497L61.62,132.29170681111486L61.879999999999995,134.6534358767831L62.14,126.95317311711554L62.4,121.13712810404337L62.66,105.56420670016641L62.92,122.22310472735646L63.18,114.82300259753166L63.44,124.45140638874736L63.699999999999996,124.42589202285178L63.96,130.8509062417309L64.22,144.23362066811546L64.48,152.2632493239462L64.74,157.08102651744466L65,121.61479214243793L65.26,128.17424583459137L65.52,127.93834892052644L65.78,124.47630247130627L66.04,125.58850479633544L66.3,116.14356890469429L66.56,62.31635032719157L66.82000000000001,12.896778871194755L67.08,73.46114424579378L67.34,94.74682615835367L67.60000000000001,119.70912346131328L67.86,107.07308435323029L68.12,90.75489944006316L68.38000000000001,98.46480354624943L68.64,114.50863553632838L68.9,114.74587682209751L69.16,90.71136691357101L69.42,87.84020273528202L69.68,100.10550024693845L69.94,105.70570861420875L70.2,88.80800088967908L70.46000000000001,107.1461562560881L70.72,76.5176288873668L70.98,89.10682460931311L71.24000000000001,115.69291005912002L71.5,88.22093391107298L71.76,69.5494058995284L72.02000000000001,87.66302022992136L72.28,104.48805386534164L72.54,97.86148451271461L72.80000000000001,96.91748481444968L73.06,93.05618124323712L73.32,102.47359313596631L73.58,94.86475515291393L73.83999999999999,116.3682051378346L74.1,111.52843944012264L74.36,100.96220117158559L74.61999999999999,106.989134235854L74.88,111.80114298892828L75.14,89.87823101571273L75.39999999999999,97.41119568950576L75.66,96.41859549363134L75.92,87.09881906751295L76.17999999999999,100.3115861745823L76.44,100.63428268431667L76.7,86.75972634887125L76.96,97.95059089871577L77.22,98.31557437847226L77.47999999999999,119.78515303303287L77.74,125.35106445728968L78,121.06228940303967L78.25999999999999,132.78454574218438L78.52,129.8534396222938L78.78,115.18861932475849L79.03999999999999,124.20179984380341L79.3,110.17621016469552L79.56,110.95947803316227L79.82,126.35146510264975L80.08,141.5339559846668L80.34,149.86837346872974L80.6,118.47589051753593L80.86,111.43585415352035L81.12,106.76355801494877L81.38,127.7619164251802L81.64,135.12138908475055L81.9,134.6285383223948L82.16,145.66006769558533L82.42,144.78743271658496L82.68,140.93950249541072L82.94,140.7503293048636L83.2,139.92853428101012L83.46000000000001,143.35238365360456L83.72,129.0522567396387L83.98,126.94024155129523L84.24000000000001,108.82268557080117L84.5,120.43208146342421L84.76,137.98232580113145L85.02000000000001,148.5124724037558L85.28,154.8305603653304L85.54,152.3616785043545L85.8,156.29098294208083L86.06,152.1421245646776L86.32000000000001,156.9271684953796L86.58,158.407079708631L86.84,151.68883585665395L87.10000000000001,111.09534722462939L87.36,86.73065958177283L87.62,117.76147267214063L87.88000000000001,121.79548165391539L88.14,120.35191680935645L88.4,109.60437105165954L88.66000000000001,80.91203455257025L88.92,101.28305773011486L89.18,103.4758983024319L89.44,102.33799526150722L89.69999999999999,73.89370513466876L89.96,91.11584355480967L90.22,96.88091846762138L90.47999999999999,96.0554645045512L90.74,93.05518176012254L91,111.10480172058675L91.25999999999999,77.26596208703955L91.52,85.01654874411074L91.78,91.53262808961549L92.03999999999999,72.5899779580361L92.3,69.22608758611973L92.56,89.52512178995309L92.82,87.84964849464492L93.08,90.76111665838552L93.34,97.57771153649767L93.6,93.35272713223515L93.86,102.72218514502619L94.11999999999999,110.14556005411306L94.38,127.49582339349548L94.64,121.23060758026796L94.89999999999999,110.31754149377376L95.16,122.15553939446137L95.42,119.96956150476578L95.67999999999999,100.59390979198204L95.94,106.13045254586231L96.2,113.86187123079263L96.46,88.71781545932895L96.72,95.01526330654688L96.98,95.18195630499184L97.24,106.5220864369915L97.5,112.37212055209875L97.76,109.74586613759939L98.02,127.8031557205329L98.28,135.16901863890027L98.54,142.7801971001821L98.8,151.3911951831862L99.06,151.84674388556527L99.32000000000001,145.05013769627305L99.58,144.41988937106913L99.84,107.74959689637946L100.10000000000001,123.89242352901607L100.36,140.05853104048657L100.62,149.75819554736887L100.88000000000001,155.57799425149824L101.14,112.10238323960087L101.4,117.89274738291317L101.66,122.86056397587171L101.92,136.7131217388884L102.18,147.61223679408425L102.44,146.27548662648059L102.7,151.84012142488174L102.96000000000001,148.77553047775058L103.22,148.75053993347277L103.48,152.45339512472833L103.74000000000001,142.50488243992112L104,145.67597354072552L104.26,140.9236259569924L104.52000000000001,134.55829272413536L104.78,126.50401287531653L105.04,128.21374557825482L105.30000000000001,142.65132426758146L105.56,151.3138714836258L105.82,156.5113998132524L106.08,140.53136723170144L106.33999999999999,147.69540560982915L106.6,149.91429018455736L106.86,155.67165103381134L107.11999999999999,152.2094685959854L107.38,135.8275163814494L107.64,119.62248319876149L107.89999999999999,98.82767475249007L108.16,125.01968177457096L108.42,118.83237843824017L108.67999999999999,125.7435173386352L108.94,134.83719576319464L109.2,121.87026701470765L109.46,126.53118924277891L109.72,123.11978699443539L109.97999999999999,117.68386883503263L110.24,103.43900290408449L110.5,110.8631590854495L110.75999999999999,98.38569863636586L111.02,98.13321684558152L111.28,89.66348036275757L111.53999999999999,114.73336360827955L111.8,83.54824427674657L112.06,99.33521267932917L112.32,106.32786421742323L112.58,113.04722557297197L112.84,98.21890032274953L113.1,117.4304603765674L113.36,122.53472798938695L113.62,110.05432056767063L113.88,118.66997242060539L114.14,110.7244485214738L114.4,105.74475465600328L114.66,110.53719605532072L114.92,129.41735023066087L115.18,136.90950855523846L115.44,117.27410274432097L115.7,124.8538174346034L115.96000000000001,122.07700541719232L116.22,113.08589127615674L116.48,107.26769390782144L116.74000000000001,113.25239227993927L117,120.77781843399421L117.26,134.26839393656087L117.52000000000001,128.496182639731L117.78,118.76532737230013L118.04,130.18740882572382L118.3,123.80818389594512L118.56,135.93925167433088L118.82000000000001,140.05050990446333L119.08,147.29549705314224L119.34,154.10037515496225L119.60000000000001,148.9810341280585L119.86,133.74620342830744L120.12,140.93294986835767L120.38000000000001,134.0770580069521L120.64,130.45182949317365L120.9,128.70085808127078L121.16000000000001,142.9435917718394L121.42,145.6335553926935L121.68,111.98823543663772L121.94,113.74556226183239L122.19999999999999,129.2293771097662L122.46,137.78438851045107L122.72,143.25374692275201L122.97999999999999,146.2380118302212L123.24,153.08596092550653L123.5,157.57465347838084L123.75999999999999,160.06140089393205L124.02,155.73030535193917L124.28,157.63414432942145L124.53999999999999,156.41065048643742L124.8,150.7634664449574L125.06,147.32452189296603L125.32,133.82019413037096L125.58,126.64026713176825L125.84,141.7072372021379L126.1,150.74741924435966L126.36,156.1715284696927L126.61999999999999,147.73325797724831L126.88,150.4501238443418L127.14,151.43761750071565L127.39999999999999,154.5240734395069L127.66,151.29386281182613L127.92,135.32469204857404L128.18,130.3402481843728L128.44,118.0906852875768L128.7,136.577488095623L128.96,122.44297206786058L129.22,124.82092934949038L129.48,134.8086628249136L129.74,109.64206912673902L130,127.9759892459127L130.26,121.823467909026L130.52,124.42519511590837L130.78,110.80331414736955L131.04,114.04106263205153L131.3,83.25941056600978L131.56,100.55089611424529L131.82,107.73828941509166L132.08,118.8624504087455L132.34,108.24263892763912L132.6,113.45078225607266L132.86,115.21253985394407L133.12,125.46897073666031L133.38,119.32458887228464L133.64000000000001,131.57626345990172L133.9,127.99862254033408L134.16,112.4770117528663L134.42000000000002,124.85918256253709L134.68,110.63887402069533L134.94,105.64102584721287L135.20000000000002,120.14090482435836L135.46,133.29770301799994L135.72,124.48308117077593L135.98000000000002,122.71810334113742L136.24,123.73146546396731L136.5,111.60409720205827L136.76000000000002,119.16423765567006L137.02,94.4027246847482L137.28,97.80059306280204L137.54000000000002,84.37045454561392L137.8,106.86377924404503L138.06,90.8498273796602L138.32,98.96836989158818L138.58,118.04304999234473L138.84,131.520330450823L139.1,144.63527519357072L139.36,148.01184301953788L139.62,150.39060466613978L139.88,154.68004661409944L140.14000000000001,156.31796991463605L140.4,147.48414532393187L140.66,140.65995121178702L140.92000000000002,128.77594742103253L141.18,135.38110261352696L141.44,132.31974269792389L141.70000000000002,145.11492254183125L141.96,146.96272516910415L142.22,126.64581253535673L142.48000000000002,133.23657706448327L142.74,139.3109625303817L143,145.06244417049763L143.26000000000002,152.7605434253755L143.52,155.73604630058662L143.78,159.1647047034289L144.04000000000002,161.22189974513427L144.3,161.31004801734048L144.56,156.14654883463055L144.82000000000002,153.0243419547747L145.08,157.4060123055271L145.34,157.5330774807847L145.60000000000002,153.28862716098433L145.86,144.35981515626608L146.12,142.06096027014186L146.38,150.95965308516205L146.64,156.29886877417414L146.89999999999998,159.5023981875814L147.16,143.83775614512098L147.42,150.93206505463567L147.67999999999998,156.28231595585834L147.94,156.42934290979053L148.2,154.91553818934636L148.45999999999998,135.70829217066913L148.72,122.5853392221731L148.98,110.78516450836396L149.23999999999998,132.1941756280953L149.5,121.86268059470575L149.76,124.10300867232826L150.01999999999998,139.8868688489799L150.28,116.23653060175572L150.54,129.42594004731393L150.79999999999998,127.96411773932587L151.06,124.81297473764602L151.32,95.61041727948664L151.57999999999998,111.41201683779414L151.84,95.3872744055611L152.1,110.09772699497428L152.35999999999999,105.9068267581324L152.62,113.75405913330493L152.88,98.92096500221854L153.14,113.04793304279747L153.4,118.36954456876742L153.66,114.06854701620036L153.92,109.10008657435363L154.18,131.1831288676891L154.44,135.98715209149688L154.7,121.02220956168898L154.95999999999998,130.6096296827015L155.22,119.03427164976512L155.48,121.59257638003336L155.73999999999998,123.43812154917386L156,134.13959533222368L156.26,135.23605894775667L156.51999999999998,126.4846549750242L156.78,131.67890143040216L157.04,126.40719846791677L157.29999999999998,121.1827907416575L157.56,127.59569180714895L157.82,125.93487515790716L158.07999999999998,106.31305925940775L158.34,110.96257571489946L158.6,114.69014849384351L158.85999999999999,122.42970951397439L159.12,125.16104007324338L159.38,126.4547553164821L159.64,141.5959301129662L159.9,140.596250375472L160.16,141.98810167510294L160.42,148.8532282113418L160.68,150.93534020016745L160.94,136.0602010401726L161.2,139.90606848130008L161.46,139.08539054415866L161.72,136.79071372478245L161.98,139.94299775860745L162.24,149.68887557824138L162.5,154.8809361069734L162.76,130.15663588293404L163.02,131.80524084466427L163.28,142.2510010600963L163.54,146.76861845832343L163.8,146.17319524491595L164.06,148.38225701886964L164.32,154.7524311343987L164.58,157.5077131221206L164.84,157.52789494433605L165.1,157.13502211346162L165.36,126.48086494325725L165.62,139.48107586245752L165.88,143.52999377468603L166.14000000000001,149.2471087854697L166.4,134.32644709970728L166.66,134.01355025727028L166.92000000000002,146.13120707743911L167.18,152.37865342220715L167.44,157.1502689764012L167.70000000000002,152.41307572065142L167.96,155.16478784337343L168.22,158.42373404823408L168.48000000000002,160.77731735201738L168.74,159.9762358326347L169,149.7089046981986L169.26000000000002,135.02196237270522L169.52,116.72873969826256L169.78,135.76032074203448L170.04000000000002,131.68168138377237L170.3,132.5319771858824L170.56,126.75225583526743L170.82,121.39757889929749L171.08,122.11006251385734L171.34,117.85863775621104L171.6,121.68209033101027L171.86,113.81269716360015L172.12,125.75708680401948L172.38,104.4713876743588L172.64000000000001,109.3370678434975L172.9,94.44964650537734L173.16,111.79755088023964L173.42000000000002,95.00946765254282L173.68,113.59246074289287L173.94,122.13743545828079L174.20000000000002,129.87104322170825L174.46,120.13274291394444L174.72,137.80272267144358L174.98000000000002,138.6813142763187L175.24,123.87556083892822L175.5,127.03416244987136L175.76000000000002,140.04478543379L176.02,136.0174260228942L176.28,137.33003817082786L176.54000000000002,142.42982870271456L176.8,141.6411161594292L177.06,136.17696559409504L177.32000000000002,137.67808179410724L177.58,127.93393833803286L177.84,110.81028078376923L178.10000000000002,121.60822687621106L178.36,127.3762865426437L178.62,118.40682355193837L178.88,131.02068944460203L179.14,125.63760146724199L179.39999999999998,126.39288213184759L179.66,136.5600195294466L179.92,146.0334613871391L180.17999999999998,153.3431537553604L180.44,150.8306627140786L180.7,155.71770727387985L180.95999999999998,159.15370128740483L181.22,158.81964276951322L181.48,151.85184726026563L181.73999999999998,152.4364026629878L182,138.58863193733595L182.26,145.85701198241358L182.51999999999998,150.90439409318162L182.78,156.2657133789859L183.04,158.75078214397809L183.29999999999998,135.5280220019818L183.56,136.86708215025757L183.82,147.41766292071344L184.07999999999998,149.1907878440747L184.34,151.56920623634267L184.6,152.03567344226383L184.85999999999999,156.94448098843523L185.12,156.44214957751126L185.38,159.58836666958368L185.64,160.26828332854183L185.9,159.28200619566775L186.16,159.58348310582838L186.42,149.09372943681433L186.68,148.76232315825746L186.94,140.60199833080185L187.2,142.81734853461393L187.45999999999998,151.41348604384527L187.72,156.57116854938408L187.98,159.66577805270737L188.23999999999998,159.4661770930427L188.5,157.30470741079858L188.76,160.10590136955608L189.01999999999998,161.66774437867474L189.28,155.54865346314233L189.54,144.90276993996474L189.79999999999998,125.12560199928532L190.06,123.04138536949307L190.32,139.54790814477278L190.57999999999998,140.33987768997363L190.84,140.15972989298058L191.1,143.28449919067117L191.35999999999999,113.00178860695077L191.62,128.3426562658832L191.88,133.99249282616154L192.14,135.09561223528527L192.4,97.13267477055818L192.66,117.43384313419489L192.92,93.99950885527656L193.18,98.24457931782338L193.44,96.6827810191796L193.7,111.29238560557327L193.96,88.46034955745453L194.22,103.89641315995348L194.48,120.06267158888073L194.74,112.9516273486109L195,108.30816315796461L195.26,129.8654173602986L195.52,126.32855636194239L195.78,127.20651764378803L196.04,135.52103008371873L196.3,135.8375526111537L196.56,127.28731529565857L196.82,135.08152632808626L197.08,146.12027848653025L197.34,140.69093610671683L197.6,127.36656036820678L197.86,129.2319249810653L198.12,128.717810393537L198.38,121.22228577037703L198.64000000000001,131.90146960206243L198.9,123.13484301799828L199.16,118.70866876903214L199.42000000000002,133.8989133445022L199.68,119.85326374062561L199.94,121.19052850053524L200.20000000000002,121.3613848211745L200.46,134.5251600693874L200.72,146.43817296470937L200.98000000000002,148.11143940457683L201.24,154.589940565823L201.5,157.10466988712L201.76000000000002,156.63839125957068L202.02,152.5570673391258L202.28,157.25731732655242L202.54000000000002,147.81807249666764L202.8,149.50153677286536L203.06,146.30713586517655L203.32,153.50735844218286L203.58,157.82749198838664L203.84,117.9309607504238L204.1,126.71106613061787L204.36,141.74971660144763L204.62,150.7729068839455L204.88,155.01797274458755L205.14000000000001,152.70878554353737L205.4,157.20613636800195L205.66,160.0467587438781L205.92000000000002,156.52144157539087L206.18,158.93025128603605L206.44,136.28091504445817L206.70000000000002,145.20064396920796L206.96,144.6208715077267L207.22,148.9607489131246L207.48000000000002,141.09264984366803L207.74,140.73509863892318L208,150.16413610643082L208.26000000000002,155.82155858693542L208.52,159.21601207523818L208.78,157.57594730016845L209.04000000000002,160.268645303178L209.3,161.8842641049837L209.56,162.85363538606714L209.82000000000002,158.59434962294137L210.08,137.54696479179367L210.34,126.33325915978173L210.60000000000002,123.13904179018995L210.86,139.6065019971909L211.12,139.45831210576645L211.38,133.5922605507195L211.64,136.39380915495093L211.89999999999998,104.85245969669651L212.16,122.18264860385023L212.42,126.27616878971399L212.67999999999998,131.92313765641555L212.94,113.37551247666183L213.2,124.15670224260766L213.45999999999998,108.35735469141797L213.72,114.6111152825491L213.98,127.86568232964814L214.23999999999998,141.8855343226687L214.5,121.8905034737094L214.76,129.9306462473867L215.01999999999998,127.7110725441051L215.28,118.94764446546546L215.54,101.99010237939947L215.79999999999998,126.91713835071661L216.06,135.8810724015808L216.32,129.46849477808792L216.57999999999998,139.2082620373756L216.84,140.28565324856717L217.1,133.06457355220522L217.35999999999999,133.95191663545472L217.62,144.93269525527376L217.88,142.1465226425723L218.14,124.15860341426935L218.4,136.7630343489297L218.66,125.19320464256094L218.92,125.70827431047647L219.18,126.43761246038443L219.44,127.91905156952994L219.7,125.91705971650762L219.95999999999998,137.6938013816624L220.22,143.61680736990039L220.48,141.59483107909168L220.73999999999998,144.90809207256018L221,149.13278666349555L221.26,155.20274892117425L221.51999999999998,154.6038607315357L221.78,155.12632196025555L222.04,158.79887009923024L222.29999999999998,156.51660584953964L222.56,148.50792176167693L222.82,146.5192868610927L223.07999999999998,133.7382133238371L223.34,141.3473527755147L223.6,148.06267667526225L223.85999999999999,154.56068292823426L224.12,158.45948668001748L224.38,124.28734461468116L224.64,139.78386991296435L224.9,149.59339887085554L225.16,154.83612433979096L225.42,158.6247515269515L225.68,157.9162675914451L225.94,159.90897288678562L226.2,157.37378360624504L226.46,156.04828517839547L226.72,155.09292718989485L226.98,155.58408707753367L227.24,154.8133536606578L227.5,149.7999679412114L227.76,153.37041760742517L228.02,146.1920317017748L228.28,147.03713415872264L228.54,153.9453574183105L228.8,158.0902913740632L229.06,160.57725174751485L229.32,147.42827945896565L229.58,154.1800445984563L229.84,157.484375664197L230.1,156.67621640663117L230.36,152.50889654507546L230.62,149.16891562010417L230.88,141.17439369297597L231.14000000000001,125.5732864561702L231.4,141.06704879677903" style="fill: none;" fill="none"></path></g></g></g></g><g opacity="0.2"><g><g><g><path stroke="rgb(255, 112, 67)" stroke-width="2px" d="M26.26,97.7605154653696L26.52,48.35569166917068L26.779999999999998,107.03730046198919L27.04,4.734041841947118L27.3,25.36718956580529L27.56,-13.023119553786074L28.6,-85.37478102463945L28.86,1.9835293344351044L29.12,-52.86534480168268L29.380000000000003,81.80802847055288L29.64,-150.01420673076922L29.900000000000002,94.22764685997596L30.16,46.03042292668269L30.42,-141.688173828125L30.68,-25.260886981670666L30.939999999999998,104.98993943434495L31.2,30.70209172175481L31.46,44.53082942082332L31.72,35.128466139573305L31.98,-22.472867713341316L32.24,36.47032733623797L32.5,0.0015042818509698463L32.76,79.07466477614182L33.02,14.425310809795661L33.28,45.8432651930589L33.54,21.4615557391827L33.800000000000004,-55.960855994591356L34.06,-24.838434495192303L34.32,25.706187838040876L34.58,56.639353966346164L34.84,42.70514103816106L35.1,111.68107703575721L35.36,-35.50894080528846L36.14,-24.436473670372607L36.400000000000006,163.92015430743876L36.66,104.48285020094652L36.919999999999995,98.1572614464393L37.18,109.03954139122597L37.44,65.70686410757212L37.699999999999996,-20.668230919471142L37.96,151.71251169057993L38.22,-55.73862342247597L38.48,65.99164137620193L38.739999999999995,89.81873046874999L39,126.71507460374099L39.26,107.30042025052585L39.519999999999996,-76.94958251953125L39.78,-25.12752403846153L40.04,64.48910616361178L40.3,127.98831965519832L40.56,164.30769230769232L40.82,63.94683762770434L41.08,164.30769230769232L41.34,129.85231917161207L41.6,116.82969895582933L41.86,122.85022352952222L42.120000000000005,21.14331655649039L42.38,119.30910226675181L42.64,9.981645507812516L42.9,26.121286057692316L43.160000000000004,51.91628502478967L43.42,113.91626436673678L43.68,164.30769230769232L43.940000000000005,164.30769230769232L44.2,164.30769230769232L44.46,49.30521108774039L44.72,114.3400957782452L44.98,132.22056232158954L45.239999999999995,162.3157682448167L45.5,150.2083875802847L45.76,74.99247840294471L46.019999999999996,-99.69355525090145L46.28,-126.40577336237982L46.54,164.30769230769232L46.8,126.12819993239182L47.059999999999995,123.20346651517428L47.32,138.1861095721905L47.58,39.63831148587741L47.839999999999996,44.36316049429087L48.1,19.101103515625L48.36,38.78712195763222L48.62,33.16461782602164L48.88,70.69716036283053L49.14,10.6332001201923L49.4,92.86389836237981L49.660000000000004,-14.22148061899037L49.92,94.74315589317908L50.18,8.509655573918252L50.440000000000005,119.57977689302885L50.7,105.646650390625L50.96,-22.574757737379826L51.22,15.188098707932681L51.480000000000004,106.47148573655349L51.74,120.69413635253906L52,59.05623347355768L52.260000000000005,88.92399198091947L52.52,2.634482234074511L52.78,66.88474186823919L53.04,13.427102801983182L53.3,142.48083425668568L53.559999999999995,11.216443622295685L53.82,102.88646033653846L54.08,62.385827636718744L54.339999999999996,-22.769010667067306L54.6,13.60617919921873L54.86,101.16494347205528L55.12,89.56662118765024L55.379999999999995,27.116218073918276L55.64,134.55431354229268L55.9,60.770663499098546L56.16,-6.639632662259629L56.42,112.94437293419472L56.68,54.358135610727174L56.94,124.74709369365985L57.2,114.04584989107572L57.46,118.07323861929086L57.72,137.02319105881912L57.980000000000004,127.62179302509014L58.24,68.83776770958534L58.5,119.49115379920372L58.760000000000005,10.523939115084119L59.02,127.00034076397236L59.28,116.46572124774639L59.54,164.30769230769232L59.800000000000004,147.5394228186974L60.06,-2.261871619591318L60.32,33.56176494891827L60.580000000000005,87.59038762019232L60.84,154.63978985126204L61.099999999999994,154.93985647348256L61.36,131.63385479266827L61.62,139.25324711726262L61.879999999999995,138.19602947528546L62.14,115.40277897761419L62.4,112.4130605844351L62.66,82.20482459435095L62.92,147.21145176814153L63.18,103.72284940279447L63.44,138.8940120755709L63.699999999999996,124.3876204740084L63.96,140.48842757004957L64.22,164.30769230769232L64.48,164.30769230769232L64.74,164.30769230769232L65,68.41544057992789L65.26,138.01342637282153L65.52,127.58450354942909L65.78,119.28323279747596L66.04,127.25680828387921L66.3,101.97616506723257L66.56,-18.424477539062508L66.82000000000001,-61.232578312800484L67.08,164.30769230769232L67.34,126.6753490271935L67.60000000000001,157.1525694157527L67.86,88.11902569110578L68.12,66.2776220703125L68.38000000000001,110.02965970552884L68.64,138.5743835214468L68.9,115.1017387507512L69.16,54.659602050781245L69.42,83.53345646784857L69.68,118.50344651442308L69.94,114.10602116511419L70.2,63.461439302884614L70.46000000000001,134.65338930570164L70.72,30.574837834284864L70.98,107.99061819223257L71.24000000000001,155.57203823383037L71.5,47.012969689002404L71.76,41.54211388221154L72.02000000000001,114.83344172551082L72.28,129.72560431847205L72.54,87.92163048377404L72.80000000000001,95.50148526705229L73.06,87.26422588641827L73.32,116.59971097506009L73.58,83.45149817833533L73.83999999999999,148.62338011521558L74.1,104.26879089355468L74.36,85.11284376878005L74.61999999999999,116.02953383225662L74.88,119.01915611853966L75.14,56.993863055889435L75.39999999999999,108.71064270019532L75.66,94.9296951998197L75.92,73.11915442833534L76.17999999999999,120.1307368351863L76.44,101.11832744891827L76.7,65.94789184570313L76.96,114.73688772348257L77.22,98.86304959810697L77.47999999999999,151.9895210148738L77.74,133.69993159367488L78,114.62912682166467L78.25999999999999,150.36793025090145L78.52,125.45678044245793L78.78,93.19138887845553L79.03999999999999,137.7215706223708L79.3,89.13782564603365L79.56,112.13437983586239L79.82,149.439445706881L80.08,164.30769230769232L80.34,162.36999969482423L80.6,71.38716609074518L80.86,100.875799607497L81.12,99.75511380709135L81.38,159.25945404052734L81.64,146.16059807410608L81.9,133.88926217886117L82.16,162.2073617553711L82.42,143.47848024808445L82.68,135.16760716364934L82.94,140.46656951904296L83.2,138.69584174522987L83.46000000000001,148.48815771249625L83.72,107.6020663686899L83.98,123.77221876878005L84.24000000000001,81.64635160006009L84.5,137.84617530235877L84.76,164.30769230769232L85.02000000000001,164.30769230769232L85.28,164.30769230769232L85.54,148.65835571289062L85.8,162.18493959867038L86.06,145.91883699857271L86.32000000000001,164.10473439143254L86.58,160.6269465285081L86.84,141.6114700786884L87.10000000000001,50.20511427659255L87.36,50.183628117487984L87.62,164.30769230769232L87.88000000000001,127.84649512657754L88.14,118.18656954251801L88.4,93.48305241511417L88.66000000000001,37.87352980393629L88.92,131.8395924964318L89.18,106.76515916090744L89.44,100.63114070012018L89.69999999999999,31.227269944411063L89.96,116.94905118502103L90.22,105.52853083683894L90.47999999999999,94.81728355994592L90.74,88.55475764347956L91,138.17923166128304L91.25999999999999,26.507702636718733L91.52,96.64242872971755L91.78,101.3067471078726L92.03999999999999,44.176002760667075L92.3,64.1802520282452L92.56,119.97367309570313L92.82,85.3364385516827L93.08,95.12831890399639L93.34,107.80260385366587L93.6,87.01525052584134L93.86,116.77637216421275L94.11999999999999,121.28062241774339L94.38,153.5212184025691L94.64,111.83278386042667L94.89999999999999,93.94794236403246L95.16,139.9125362454928L95.42,116.69059467022235L95.67999999999999,71.5304322228065L95.94,114.43526667668269L96.2,125.4589992581881L96.46,51.00173180213342L96.72,104.4614350773738L96.98,95.43199580265926L97.24,123.532281634991L97.5,121.14717172475962L97.76,105.80648451585036L98.02,154.88909009493315L98.28,146.21781301645132L98.54,154.19696479210486L98.8,164.30769230769232L99.06,152.53006693913386L99.32000000000001,134.85522841233472L99.58,143.47451688326322L99.84,52.74415818434494L100.10000000000001,148.106663477971L100.36,164.30769230769232L100.62,164.30769230769232L100.88000000000001,164.30769230769232L101.14,46.8889667217548L101.4,126.57829359788161L101.66,130.31228886530948L101.92,157.49195838341348L102.18,163.960909376878L102.44,144.2703613750751L102.7,160.18707362248347L102.96000000000001,144.1786440570538L103.22,148.71305411705603L103.48,158.0076779116117L103.74000000000001,127.58211341271034L104,150.4326101919321L104.26,133.79510458139274L104.52000000000001,125.01029287484977L104.78,114.42259310208834L105.04,130.77834463266225L105.30000000000001,164.3076923015714L105.56,164.30769230769232L105.82,164.30769230769232L106.08,116.56131835937501L106.33999999999999,158.44146317702072L106.6,153.24261704664963L106.86,164.30769230769232L107.11999999999999,147.01619493924653L107.38,111.25458805964544L107.64,95.31493342472956L107.89999999999999,67.63546208308294L108.16,164.30769230769232L108.42,109.55142343374399L108.67999999999999,136.11022568922778L108.94,148.4777134000338L109.2,102.41987389197716L109.46,133.5225725848858L109.72,118.00268362192007L109.97999999999999,109.5299915959285L110.24,82.07170400766226L110.5,121.99939335749698L110.75999999999999,79.66950796274038L111.02,97.75449415940506L111.28,76.95887563852163L111.53999999999999,152.3381884765625L111.8,36.77056527944711L112.06,123.01566528320313L112.32,116.8168415245643L112.58,123.12626760629507L112.84,75.97641244741587L113.1,146.24780045729418L113.36,130.1911294086163L113.62,91.33370943509615L113.88,131.5934502000075L114.14,98.80616267277645L114.4,98.27521385779748L114.66,117.72585815429687L114.92,157.73758149367112L115.18,148.14774604210487L115.44,87.8209940279447L115.7,136.22338947002703L115.96000000000001,117.91178739107573L116.22,99.59922006460337L116.48,98.5403978553185L116.74000000000001,122.22943983811598L117,132.0659576650766L117.26,154.5042571904109L117.52000000000001,119.83786569448617L117.78,104.16904447115385L118.04,147.32053100585938L118.3,114.23934650127704L118.56,154.13585334190955L118.82000000000001,146.21739724966196L119.08,158.1629777761606L119.34,164.30769230769232L119.60000000000001,141.30202258770282L119.86,110.89395737868088L120.12,151.71306952843298L120.38000000000001,123.79322021484376L120.64,125.01398672250602L120.9,126.07440096341648L121.16000000000001,164.30769230769232L121.42,149.66850082397463L121.68,61.52025550255408L121.94,116.3815524996244L122.19999999999999,152.4550993816669L122.46,150.61690561147836L122.72,151.4577845412034L122.97999999999999,150.71440919142503L123.24,163.35788456843449L123.5,164.30769230769232L123.75999999999999,163.79152201725887L124.02,149.23366203894983L124.28,160.4899027956449L124.53999999999999,154.5754097219614L124.8,142.29269038273736L125.06,142.16610506497898L125.32,113.56370248647836L125.58,115.87037663386418L125.84,164.30769230769232L126.1,164.30769230769232L126.36,164.30769230769232L126.61999999999999,135.07585223858172L126.88,154.52542264498197L127.14,152.91885798527645L127.39999999999999,159.1537573476938L127.66,146.448546870305L127.92,111.37093590369591L128.18,122.86358238807091L128.44,99.71634094238281L128.7,164.30769230769232L128.96,101.24119802621695L129.22,128.38786527193508L129.48,149.79026303804838L129.74,71.89217857947716L130,155.47686942467323L130.26,112.59468590369592L130.52,128.32778592623197L130.78,90.3704926945613L131.04,118.89768535907453L131.3,37.08693246694713L131.56,126.48812443659855L131.82,118.51937936636118L132.08,135.54869189922627L132.34,92.31292170597956L132.6,121.26299724872297L132.86,117.85517625075121L133.12,140.85361706073468L133.38,110.10801607572115L133.64000000000001,149.95377534132737L133.9,122.63216116098258L134.16,89.19459557166466L134.42000000000002,143.43243877704327L134.68,89.30841120793269L134.94,98.14425358698918L135.20000000000002,141.8907232900766L135.46,153.03290030846227L135.72,111.2611483999399L135.98000000000002,120.07063659667969L136.24,125.25150864821214L136.5,93.41304480919472L136.76000000000002,130.50444833608773L137.02,57.26045522836539L137.28,102.89739562988282L137.54000000000002,64.22524676983173L137.8,140.6037662916917L138.06,66.82889958308294L138.32,111.14618365948017L138.58,146.65507014347958L138.84,151.7362511385404L139.1,164.30769230769232L139.36,153.0766947584886L139.62,153.95874713604266L139.88,161.1142095360389L140.14000000000001,158.77485486544094L140.4,134.2334084378756L140.66,130.4236600435697L140.92000000000002,110.94994173490085L141.18,145.28883540226863L141.44,127.72770282451923L141.70000000000002,164.30769230769232L141.96,149.73442911001354L142.22,96.17044358473558L142.48000000000002,143.12272385817306L142.74,148.42254072922927L143,153.68966663067158L143.26000000000002,164.30769230769232L143.52,160.19930061340332L143.78,164.30769230769232L144.04000000000002,164.30769230769232L144.3,161.44227042564978L144.56,148.40130006056566L144.82000000000002,148.341031634991L145.08,163.97851783165564L145.34,157.72367524367112L145.60000000000002,146.92195168128382L145.86,130.96659714918871L146.12,138.61267794095554L146.38,164.30769230769232L146.64,164.30769230769232L146.89999999999998,164.30769230769232L147.16,120.34079308143029L147.42,161.57352841890776L147.67999999999998,164.30769230769232L147.94,156.64988334068886L148.2,152.64483110868014L148.45999999999998,106.89742314265325L148.72,102.90090979942909L148.98,93.08490243765024L149.23999999999998,164.30769230769232L149.5,106.3654380446214L149.76,127.46350078876202L150.01999999999998,163.56265911395732L150.28,80.76102323091946L150.54,149.2100542156513L150.79999999999998,125.77138427734374L151.06,120.0862602351262L151.32,51.8065810922476L151.57999999999998,135.11441617525543L151.84,71.35016075721154L152.1,132.16340587909406L152.35999999999999,99.62047640286958L152.62,125.5249076960637L152.88,76.67132380558895L153.14,134.23838510366585L153.4,126.35196185772236L153.66,107.61705068734976L153.92,101.64739591158353L154.18,164.30769230769232L154.44,143.19318692720853L154.7,98.57479576697716L154.95999999999998,144.99075986422025L155.22,101.67123460036058L155.48,125.43003347543569L155.73999999999998,126.2064393028846L156,150.19180600679837L156.26,136.88075437105618L156.51999999999998,113.35754901592549L156.78,139.47027111346904L157.04,118.49964402418871L157.29999999999998,113.34617915226863L157.56,137.21504340538613L157.82,123.44365018404446L158.07999999999998,76.88033541165866L158.34,117.93685039813701L158.6,120.28150766225961L158.85999999999999,134.03905104417066L159.12,129.25803591214694L159.38,128.39532818134015L159.64,164.30769230769232L159.9,139.09673076923076L160.16,144.0758786245493L160.42,159.1509180157001L160.68,154.05850818340596L160.94,113.74749230018028L161.2,145.67486964299127L161.46,137.85437363844653L161.72,133.34869849571817L161.98,144.67142380934496L162.24,164.30769230769232L162.5,162.66902690007137L162.76,93.07018554687501L163.02,134.27814828725963L163.28,157.91964138324443L163.54,153.54504455566405L163.8,145.28006042480467L164.06,151.69584967980018L164.32,164.30769230769232L164.58,161.64063610370343L164.84,157.55816767765924L165.1,156.54571286714994L165.36,80.49962918795072L165.62,158.98139224125788L165.88,149.60337064302885L166.14000000000001,157.82278130164514L166.4,111.9454545710637L166.66,133.54420499361478L166.92000000000002,164.30769230769232L167.18,161.74982293935923L167.44,164.30769230769232L167.70000000000002,145.30728583702674L167.96,159.29235602745644L168.22,163.31215335552508L168.48000000000002,164.30769230769232L168.74,158.7746135535607L169,134.3079079965445L169.26000000000002,112.99154888446515L169.52,89.28890568659855L169.78,164.30769230769232L170.04000000000002,125.56372234637921L170.3,133.80742088904748L170.56,118.08267380934495L170.82,113.36556349534256L171.08,123.17878793569712L171.34,111.48150061974158L171.6,127.41726919320914L171.86,102.00860741248498L172.12,143.67367126464842L172.38,72.5428389798678L172.64000000000001,116.63558809720553L172.9,72.11851449819711L173.16,137.81940744253305L173.42000000000002,69.82734281099759L173.68,141.46695037841798L173.94,134.9548975313627L174.20000000000002,141.47145486684946L174.46,105.52529245229869L174.72,164.30769230769232L174.98000000000002,139.99920168363133L175.24,101.66693068284255L175.5,131.77206486628606L175.76000000000002,159.56071990966797L176.02,129.9763869065505L176.28,139.29895639272837L176.54000000000002,150.07951450054463L176.8,140.4580473445012L177.06,127.98073974609375L177.32000000000002,139.9297560941256L177.58,113.31772315392128L177.84,85.1247944523738L178.10000000000002,137.8051460148738L178.36,136.02837604229268L178.62,104.95262906588042L178.88,149.9414882835975L179.14,117.56296950120192L179.39999999999998,127.52580312875601L179.66,151.8107256258451L179.92,160.2436241736779L180.17999999999998,164.30769230769232L180.44,147.06192615215596L180.7,163.04827411358173L180.95999999999998,164.30769230769232L181.22,158.3185549926758L181.48,141.40015399639424L181.73999999999998,153.31323576707106L182,117.81697584885816L182.26,156.75958205003005L182.51999999999998,158.4754672593337L182.78,164.30769230769232L183.04,162.47838529146634L183.29999999999998,100.69388178898738L183.56,138.87567237267126L183.82,163.24353407639722L184.07999999999998,151.8504752291166L184.34,155.1368338247446L184.6,152.73537425114557L184.85999999999999,164.30769230769232L185.12,155.68865246112532L185.38,164.30769230769232L185.64,161.28815831697904L185.9,157.80259049635666L186.16,160.03569847106934L186.42,133.35909893329327L186.68,148.26521374042218L186.94,128.36151108961838L187.2,146.14037384033202L187.45999999999998,164.30769230769232L187.72,164.30769230769232L187.98,164.30769230769232L188.23999999999998,159.16677565354567L188.5,154.0625028874324L188.76,164.30769230769232L189.01999999999998,164.01050889235276L189.28,146.37001708984374L189.54,128.93394465519833L189.79999999999998,95.45985008826622L190.06,119.9150604248047L190.32,164.30769230769232L190.57999999999998,141.52783200777495L190.84,139.88950819749098L191.1,147.97165313720703L191.35999999999999,67.57772273137019L191.62,151.35395775428185L191.88,142.46724766657903L192.14,136.75029134897085L192.4,40.18826857346755L192.66,147.88559567964995L192.92,58.84800743689904L193.18,104.61218501164363L193.44,94.34008357121395L193.7,133.20679248516376L193.96,54.21229548527646L194.22,127.05050856370192L194.48,144.31205923227162L194.74,102.28506098820614L195,101.3429668719952L195.26,162.20129866379958L195.52,121.02326486440805L195.78,128.52345956655648L196.04,147.9927987436148L196.3,136.3123364023062L196.56,114.46195932241586L196.82,146.77284287672776L197.08,162.6784067241962L197.34,132.5469225369967L197.6,107.3799967604417L197.86,132.02997190035308L198.12,127.94663851224459L198.38,109.97899883563701L198.64000000000001,147.9202453495906L198.9,109.98490314190204L199.16,112.06940739558294L199.42000000000002,156.68428020770733L199.68,98.7847893348107L199.94,123.19642564039964L200.20000000000002,121.61766930213341L200.46,154.27082294170674L200.72,164.30769230769232L200.98000000000002,150.621339064378L201.24,164.30769230769232L201.5,160.8767638690655L201.76000000000002,155.9389733182467L202.02,146.43508145845854L202.28,164.30769230769232L202.54000000000002,133.65920525184043L202.8,152.02673318716197L203.06,141.51553450364332L203.32,164.30769230769232L203.58,164.30769230769232L203.84,58.08616389347958L204.1,139.88122420090895L204.36,164.30769230769232L204.62,164.30769230769232L204.88,161.38557153555064L205.14000000000001,149.24500474196213L205.4,163.95216260469877L205.66,164.30769230769232L205.92000000000002,151.23346582266L206.18,162.54346585200383L206.44,102.30691068209134L206.70000000000002,158.58023735633265L206.96,143.7512128155048L207.22,155.47056502122146L207.48000000000002,129.29050123948318L207.74,140.19877183180589L208,164.30769230769232L208.26000000000002,164.30769230769232L208.52,164.30769230769232L208.78,155.11585013756385L209.04000000000002,164.30769230769232L209.3,164.30769230769232L209.56,164.30769230769232L209.82000000000002,152.2054209782527L210.08,105.97588754507211L210.34,109.51270071176381L210.60000000000002,118.3477157358023L210.86,164.30769230769232L211.12,139.2360272686298L211.38,124.79318321814904L211.64,140.59613206129808L211.89999999999998,57.540435509314904L212.16,148.17793196458084L212.42,132.41644906850962L212.67999999999998,140.39359095646785L212.94,85.55407470703125L213.2,140.32848689152644L213.45999999999998,84.65833336463342L213.72,123.99175616924579L213.98,147.74753290029673L214.23999999999998,162.91531231219952L214.5,91.89795720027044L214.76,141.99086040790263L215.01999999999998,124.38171198918269L215.28,105.80250234750602L215.54,76.55378925030048L215.79999999999998,164.30769230769232L216.06,149.32697347787712L216.32,119.84962834284855L216.57999999999998,153.8179129263071L216.84,141.90174006535457L217.1,122.23295400766226L217.35999999999999,135.28293126032904L217.62,161.40386318500225L217.88,137.96726372352015L218.14,97.1767245718149L218.4,155.66968075092024L218.66,107.8384600830078L218.92,126.48087881234976L219.18,127.5316196852464L219.44,130.1412102332482L219.7,122.91407193697415L219.95999999999998,155.35891387939452L220.22,152.50131635225736L220.48,138.5618666428786L220.73999999999998,149.87798356276292L221,155.46982854989858L221.26,164.30769230769232L221.51999999999998,153.70552844707782L221.78,155.91001380333535L222.04,164.30769230769232L222.29999999999998,153.09320947500376L222.56,136.49489562988282L222.82,143.53633451021634L223.07999999999998,114.56660301795372L223.34,152.7610619530311L223.6,158.13566252488357L223.85999999999999,164.30769230769232L224.12,164.30769230769232L224.38,73.02913151667667L224.64,163.02865786038913L224.9,164.30769230769232L225.16,162.7002125431941L225.42,164.30769230769232L225.68,156.8535416881855L225.94,162.89803082979643L226.2,153.5709996854342L226.46,154.0600375366211L226.72,153.65989020714392L226.98,156.32082690899188L227.24,153.65725353534407L227.5,142.27988936204176L227.76,158.7260921067458L228.02,135.42445284329926L228.28,148.30478784414439L228.54,164.30769230769232L228.8,164.30769230769232L229.06,164.30769230769232L229.32,127.70482102614183L229.58,164.30769230769232L229.84,162.440872262808L230.1,155.46397752028247L230.36,146.2579167527419L230.62,144.15894423264723L230.88,129.18261080228365L231.14000000000001,102.17162560096153L231.4,164.30769230769232" style="fill: none;" fill="none"></path></g></g></g></g></g></g><g transform="translate(70, 178)" clip-path="url(#clip_1)"><clipPath id="clip_1"><rect width="260" height="21"></rect></clipPath><g><g><line x1="0" y1="0" x2="0" y2="5" style="visibility: inherit;" fill="rgb(0, 0, 0)" stroke="rgb(204, 204, 204)" stroke-width="1px"></line><line x1="26" y1="0" x2="26" y2="5" style="visibility: inherit;" fill="rgb(0, 0, 0)" stroke="rgb(204, 204, 204)" stroke-width="1px"></line><line x1="52" y1="0" x2="52" y2="5" style="visibility: inherit;" fill="rgb(0, 0, 0)" stroke="rgb(204, 204, 204)" stroke-width="1px"></line><line x1="78" y1="0" x2="78" y2="5" style="visibility: inherit;" fill="rgb(0, 0, 0)" stroke="rgb(204, 204, 204)" stroke-width="1px"></line><line x1="104" y1="0" x2="104" y2="5" style="visibility: inherit;" fill="rgb(0, 0, 0)" stroke="rgb(204, 204, 204)" stroke-width="1px"></line><line x1="130" y1="0" x2="130" y2="5" style="visibility: inherit;" fill="rgb(0, 0, 0)" stroke="rgb(204, 204, 204)" stroke-width="1px"></line><line x1="156" y1="0" x2="156" y2="5" style="visibility: inherit;" fill="rgb(0, 0, 0)" stroke="rgb(204, 204, 204)" stroke-width="1px"></line><line x1="182" y1="0" x2="182" y2="5" style="visibility: inherit;" fill="rgb(0, 0, 0)" stroke="rgb(204, 204, 204)" stroke-width="1px"></line><line x1="208" y1="0" x2="208" y2="5" style="visibility: inherit;" fill="rgb(0, 0, 0)" stroke="rgb(204, 204, 204)" stroke-width="1px"></line><line x1="234" y1="0" x2="234" y2="5" style="visibility: inherit;" fill="rgb(0, 0, 0)" stroke="rgb(204, 204, 204)" stroke-width="1px"></line><line x1="260" y1="0" x2="260" y2="5" style="visibility: inherit;" fill="rgb(0, 0, 0)" stroke="rgb(204, 204, 204)" stroke-width="1px"></line></g><g transform="translate(0, 8)"><text x="0" y="0" dx="0em" dy="0.95em" style="text-anchor: middle; visibility: hidden; font-family: &quot;Helvetica Neue&quot;, sans-serif; font-size: 12px; font-weight: 200;" fill="rgb(50, 49, 63)" stroke="none" stroke-width="1px">-100</text><text x="26" y="0" dx="0em" dy="0.95em" style="text-anchor: middle; visibility: inherit; font-family: &quot;Helvetica Neue&quot;, sans-serif; font-size: 12px; font-weight: 200;" fill="rgb(50, 49, 63)" stroke="none" stroke-width="1px">0</text><text x="52" y="0" dx="0em" dy="0.95em" style="text-anchor: middle; visibility: inherit; font-family: &quot;Helvetica Neue&quot;, sans-serif; font-size: 12px; font-weight: 200;" fill="rgb(50, 49, 63)" stroke="none" stroke-width="1px">100</text><text x="78" y="0" dx="0em" dy="0.95em" style="text-anchor: middle; visibility: inherit; font-family: &quot;Helvetica Neue&quot;, sans-serif; font-size: 12px; font-weight: 200;" fill="rgb(50, 49, 63)" stroke="none" stroke-width="1px">200</text><text x="104" y="0" dx="0em" dy="0.95em" style="text-anchor: middle; visibility: inherit; font-family: &quot;Helvetica Neue&quot;, sans-serif; font-size: 12px; font-weight: 200;" fill="rgb(50, 49, 63)" stroke="none" stroke-width="1px">300</text><text x="130" y="0" dx="0em" dy="0.95em" style="text-anchor: middle; visibility: inherit; font-family: &quot;Helvetica Neue&quot;, sans-serif; font-size: 12px; font-weight: 200;" fill="rgb(50, 49, 63)" stroke="none" stroke-width="1px">400</text><text x="156" y="0" dx="0em" dy="0.95em" style="text-anchor: middle; visibility: inherit; font-family: &quot;Helvetica Neue&quot;, sans-serif; font-size: 12px; font-weight: 200;" fill="rgb(50, 49, 63)" stroke="none" stroke-width="1px">500</text><text x="182" y="0" dx="0em" dy="0.95em" style="text-anchor: middle; visibility: inherit; font-family: &quot;Helvetica Neue&quot;, sans-serif; font-size: 12px; font-weight: 200;" fill="rgb(50, 49, 63)" stroke="none" stroke-width="1px">600</text><text x="208" y="0" dx="0em" dy="0.95em" style="text-anchor: middle; visibility: inherit; font-family: &quot;Helvetica Neue&quot;, sans-serif; font-size: 12px; font-weight: 200;" fill="rgb(50, 49, 63)" stroke="none" stroke-width="1px">700</text><text x="234" y="0" dx="0em" dy="0.95em" style="text-anchor: middle; visibility: inherit; font-family: &quot;Helvetica Neue&quot;, sans-serif; font-size: 12px; font-weight: 200;" fill="rgb(50, 49, 63)" stroke="none" stroke-width="1px">800</text><text x="260" y="0" dx="0em" dy="0.95em" style="text-anchor: middle; visibility: hidden; font-family: &quot;Helvetica Neue&quot;, sans-serif; font-size: 12px; font-weight: 200;" fill="rgb(50, 49, 63)" stroke="none" stroke-width="1px">900</text></g><line x1="0" y1="0" x2="260" y2="0" fill="rgb(0, 0, 0)" stroke="rgb(204, 204, 204)" stroke-width="1px"></line></g></g></g></g></svg>